<?xml version="1.0" encoding="UTF-8" standalone="no"?>
<svg
   fill="none"
   viewBox="0 0 48 48"
   height="256"
   width="256"
   version="1.1"
   id="svg2270"
   sodipodi:docname="icon.svg"
   inkscape:version="1.4 (86a8ad7, 2024-10-11)"
   inkscape:export-filename="icon.png"
   inkscape:export-xdpi="48"
   inkscape:export-ydpi="48"
   xmlns:inkscape="http://www.inkscape.org/namespaces/inkscape"
   xmlns:sodipodi="http://sodipodi.sourceforge.net/DTD/sodipodi-0.dtd"
   xmlns="http://www.w3.org/2000/svg"
   xmlns:svg="http://www.w3.org/2000/svg">
  <defs
     id="defs2274" />
  <sodipodi:namedview
     id="namedview2272"
     pagecolor="#ffffff"
     bordercolor="#666666"
     borderopacity="1.0"
     inkscape:showpageshadow="2"
     inkscape:pageopacity="0.0"
     inkscape:pagecheckerboard="0"
     inkscape:deskcolor="#d1d1d1"
     showgrid="false"
     inkscape:zoom="1.6191406"
     inkscape:cx="307.87938"
     inkscape:cy="35.512666"
     inkscape:current-layer="svg2270"
     inkscape:window-width="3840"
     inkscape:window-height="1494"
     inkscape:window-x="-11"
     inkscape:window-y="-11"
     inkscape:window-maximized="1" />
  <path
     fill="#d3d7cf"
     d="M30.049 2.06996C30.049 2.06996 32.7693 3.1 37.7693 8.05C42.751 12.9819 43.7957 15.6797 43.8033 15.6994C43.9247 18.0495 44 20.7979 44 24C44 33.5541 43.3294 39.0688 42.7649 42.0187C42.4022 43.9138 40.9085 45.2127 38.9715 45.4197C36.3568 45.699 31.7428 46 24 46C16.2572 46 11.6432 45.699 9.02852 45.4197C7.09148 45.2127 5.59781 43.9138 5.23513 42.0187C4.67056 39.0688 4 33.5541 4 24C4 14.4459 4.67056 8.93121 5.23513 5.98128C5.59782 4.08618 7.09148 2.78727 9.02852 2.58034C11.6432 2.30102 16.2572 2 24 2C26.2774 2 28.2842 2.02609 30.049 2.06996Z"
     id="path2264"
     style="fill:#d3d7cf;fill-opacity:1" />
  <path
     d="m 8.700712,24.516026 q 0.605555,0.525324 0.946713,1.181979 0.341158,0.644715 0.477622,1.659545 0.136463,1.00289 0.136463,2.578862 0,1.181978 0.03411,1.743119 0.04264,0.561142 0.153521,0.847681 0.119405,0.298479 0.281455,0.382055 0.16205,0.09551 0.554382,0.179087 0.3241,0.05969 0.537324,0.441749 0.213223,0.382054 0.213223,1.002891 0,1.44464 -1.253755,1.44464 -0.776135,0 -1.390219,-0.453689 Q 8.785998,35.070256 8.4533686,34.234514 8.1207401,33.410711 8.1122112,32.336186 8.0866269,30.521431 8.0610342,29.423027 8.0354499,28.324623 7.9842729,28.002265 7.8563389,27.202341 7.6004708,26.796408 7.3531309,26.390477 6.9437417,26.04424 6.542881,25.686066 6.3723014,25.411464 6.2017227,25.124924 6.2017227,24.516026 q 0,-0.883499 0.4946791,-1.325249 0.6140844,-0.537262 0.8699533,-0.907377 0.264397,-0.382053 0.3667442,-0.967072 0.110877,-0.596959 0.1279349,-1.289432 0.017056,-0.704411 0.051177,-3.366846 0.025584,-1.647607 0.7420178,-2.626619 0.724961,-0.990951 1.927543,-0.990951 1.253755,0 1.253755,1.420762 0,0.644715 -0.213223,1.014829 -0.204695,0.370115 -0.537324,0.429811 -0.494679,0.09551 -0.690845,0.28654 -0.196166,0.191026 -0.255868,0.740228 -0.05971,0.549203 -0.07676,2.125174 -0.01706,1.540153 -0.136463,2.531104 -0.110877,0.979013 -0.452034,1.671485 -0.332629,0.692471 -0.9723,1.253613 z"
     id="path844"
     style="font-size:20.6664px;line-height:0.85;font-family:'Arial Rounded MT Bold';-inkscape-font-specification:'Arial Rounded MT Bold, Normal';word-spacing:0px;fill:#2e3436;stroke-width:0.140907" />
  <path
     d="m 39.60501,24.516026 q -0.460564,-0.405931 -0.750547,-0.847681 -0.289985,-0.441749 -0.477622,-1.074525 -0.187636,-0.632777 -0.264397,-1.492397 -0.07676,-0.871561 -0.07676,-2.041599 0,-1.134223 -0.03411,-1.73118 -0.03411,-0.608898 -0.136463,-0.8835 -0.102347,-0.274601 -0.289985,-0.370114 -0.179107,-0.107454 -0.554381,-0.167148 -0.315571,-0.05969 -0.537324,-0.429811 -0.213223,-0.370114 -0.213223,-1.014829 0,-1.420762 1.236697,-1.420762 0.793192,0 1.390219,0.453688 0.605555,0.44175 0.946713,1.277492 0.349687,0.823803 0.358215,1.88639 0.05118,3.963805 0.119406,4.357799 0.136463,0.787985 0.40086,1.205856 0.264398,0.405932 0.639672,0.728289 0.375273,0.310419 0.554382,0.620838 0.187636,0.310418 0.187636,0.943194 0,0.895438 -0.48615,1.313309 -0.597026,0.513385 -0.869953,0.907377 -0.264397,0.382055 -0.375273,0.967074 -0.102348,0.57308 -0.127935,1.73118 -0.01706,1.1581 -0.04264,2.90122 -0.02559,1.647606 -0.759076,2.638557 -0.724961,1.002891 -1.936072,1.002891 -0.597026,0 -0.921126,-0.370115 -0.315571,-0.370114 -0.315571,-1.074525 0,-0.393993 0.102347,-0.72829 0.102347,-0.322358 0.264398,-0.501445 0.170579,-0.179088 0.383802,-0.214905 0.383803,-0.07164 0.571439,-0.179087 0.187638,-0.107454 0.281456,-0.405933 0.102347,-0.298479 0.127934,-0.883499 0.03411,-0.57308 0.03411,-1.683423 0.01706,-1.647607 0.136464,-2.578862 0.119405,-0.931256 0.452034,-1.599849 0.332629,-0.668594 0.980829,-1.241675 z"
     id="path848"
     style="font-size:20.6664px;line-height:0.85;font-family:'Arial Rounded MT Bold';-inkscape-font-specification:'Arial Rounded MT Bold, Normal';word-spacing:0px;fill:#2e3436;stroke-width:0.140907" />
  <path
     style="font-size:20.6664px;line-height:0.85;font-family:'Arial Rounded MT Bold';-inkscape-font-specification:'Arial, Normal';word-spacing:0px;fill:#008080;stroke-width:0.140907;stroke-linecap:round;stroke-linejoin:round"
     d="m 11.873012,20.695312 c -0.207098,2.1e-5 -0.374979,0.167902 -0.375,0.375 v 2.929687 c -9e-6,0.02227 0.002,0.04449 0.0059,0.06641 l 0.611328,3.40625 c 0.03216,0.17864 0.18763,0.308611 0.369141,0.308594 h 1.341797 c 0.184115,4.82e-4 0.341352,-0.132755 0.371094,-0.314453 L 14.7461,24.06055 C 14.749,24.04051 14.7503,24.02026 14.75,24 v -2.929687 c -2.1e-5,-0.207098 -0.167902,-0.374979 -0.375,-0.375 z m 4.052734,0 c -0.207098,2.1e-5 -0.374979,0.167902 -0.375,0.375 v 2.929687 c -9e-6,0.02227 0.002,0.04449 0.0059,0.06641 l 0.597656,3.404297 c 0.03132,0.179416 0.187011,0.310396 0.36914,0.310547 h 1.31836 c 0.182866,8.01e-4 0.33965,-0.130402 0.371094,-0.310547 l 0.585937,-3.40625 c 0.0031,-0.02133 0.0045,-0.04289 0.0039,-0.06445 v -2.929687 c -2.1e-5,-0.207098 -0.167902,-0.374979 -0.375,-0.375 z m 4.822266,0 c -0.207098,2.1e-5 -0.374979,0.167902 -0.375,0.375 v 2.929687 c -9e-6,0.02227 0.002,0.04449 0.0059,0.06641 l 0.609375,3.40625 c 0.03216,0.17864 0.18763,0.308611 0.369141,0.308594 h 1.34375 c 0.183376,-4.75e-4 0.339518,-0.133485 0.36914,-0.314453 L 23.6211,24.06055 C 23.624,24.04051 23.6253,24.02026 23.625,24 v -2.929687 c -2.1e-5,-0.207098 -0.167902,-0.374979 -0.375,-0.375 z m 4.052734,0 c -0.207098,2.1e-5 -0.374979,0.167902 -0.375,0.375 v 2.929687 c -9e-6,0.02227 0.002,0.04449 0.0059,0.06641 l 0.597656,3.404297 c 0.03132,0.179416 0.187011,0.310396 0.36914,0.310547 h 1.31836 c 0.182129,-1.51e-4 0.337822,-0.131131 0.36914,-0.310547 l 0.585938,-3.40625 c 0.0038,-0.02127 0.0058,-0.04284 0.0059,-0.06445 v -2.929687 c -2.1e-5,-0.207098 -0.167902,-0.374979 -0.375,-0.375 z m 4.822266,0 c -0.207098,2.1e-5 -0.374979,0.167902 -0.375,0.375 v 2.929687 c -9e-6,0.02227 0.002,0.04449 0.0059,0.06641 l 0.609375,3.40625 c 0.03216,0.17864 0.18763,0.308611 0.369141,0.308594 h 1.34375 c 0.183376,-4.75e-4 0.339518,-0.133485 0.36914,-0.314453 l 0.548829,-3.40625 c 0.0036,-0.01999 0.0056,-0.04024 0.0059,-0.06055 v -2.929687 c -2.1e-5,-0.207098 -0.167902,-0.374979 -0.375,-0.375 z m 4.052734,0 c -0.207098,2.1e-5 -0.374979,0.167902 -0.375,0.375 v 2.929687 c -9e-6,0.02227 0.002,0.04449 0.0059,0.06641 l 0.597656,3.404297 c 0.03132,0.179416 0.187011,0.310396 0.36914,0.310547 h 1.31836 c 0.182129,-1.51e-4 0.337822,-0.131131 0.36914,-0.310547 l 0.585938,-3.40625 c 0.0038,-0.02127 0.0058,-0.04284 0.0059,-0.06445 v -2.929687 c -2.1e-5,-0.207098 -0.167902,-0.374979 -0.375,-0.375 z"
     id="text1"
     sodipodi:nodetypes="cccccccccccccccccccccccccccccccccccccccccccccccccccccccccccccccccccccccccccccc" />
  <path
     fill="#888a85"
     d="M43.8024 15.6998C40.6029 16.4965 36.8253 16.5494 33.5625 15.5626C32.1831 15.1454 31.1075 14.0816 30.642 12.7301C29.4822 9.36336 29.1957 5.24234 30.0481 2.07031C30.0481 2.07031 32.7684 3.10035 37.7684 8.05035C42.7684 13.0004 43.8024 15.6998 43.8024 15.6998Z"
     id="path2266"
     style="fill:#888a85;fill-opacity:1" />
</svg>
